<?xml version="1.0" standalone="no"?><!DOCTYPE svg PUBLIC "-//W3C//DTD SVG 1.1//EN" "http://www.w3.org/Graphics/SVG/1.1/DTD/svg11.dtd"><svg t="1557663532377" class="icon" style="" viewBox="0 0 1024 1024" version="1.1" xmlns="http://www.w3.org/2000/svg" p-id="880" xmlns:xlink="http://www.w3.org/1999/xlink" width="200" height="200"><defs><style type="text/css"></style></defs><path d="M597.333333 640h341.333334a42.666667 42.666667 0 0 0 42.666666-42.666667v-170.666666a42.666667 42.666667 0 0 0-42.666666-42.666667h-341.333334a42.666667 42.666667 0 0 0-42.666666 42.666667v42.666666H256V341.333333h298.666667a42.666667 42.666667 0 0 0 42.666666-42.666666V85.333333a42.666667 42.666667 0 0 0-42.666666-42.666666H85.333333a42.666667 42.666667 0 0 0-42.666666 42.666666v213.333334a42.666667 42.666667 0 0 0 42.666666 42.666666h85.333334v512a42.666667 42.666667 0 0 0 42.666666 42.666667h341.333334v42.666667a42.666667 42.666667 0 0 0 42.666666 42.666666h341.333334a42.666667 42.666667 0 0 0 42.666666-42.666666v-170.666667a42.666667 42.666667 0 0 0-42.666666-42.666667h-341.333334a42.666667 42.666667 0 0 0-42.666666 42.666667v42.666667H256v-256h298.666667v42.666666a42.666667 42.666667 0 0 0 42.666666 42.666667z m42.666667-170.666667h256v85.333334h-256zM128 256V128h384v128z m512 554.666667h256v85.333333h-256z" p-id="881" fill="#ffffff"></path></svg>